<?xml version="1.0" standalone="no"?>
<!DOCTYPE svg PUBLIC "-//W3C//DTD SVG 20010904//EN"
 "http://www.w3.org/TR/2001/REC-SVG-20010904/DTD/svg10.dtd">
<svg version="1.0" xmlns="http://www.w3.org/2000/svg"
 width="1000.000000pt" height="1000.000000pt" viewBox="0 0 1000.000000 1000.000000"
 preserveAspectRatio="xMidYMid meet">
<metadata>
Created by potrace 1.14, written by Peter Selinger 2001-2017
</metadata>
<g transform="translate(0.000000,1000.000000) scale(0.100000,-0.100000)"
fill="#000000" stroke="none">
<path d="M4870 8989 c-2648 -373 -4818 -678 -4821 -679 -8 0 -19 -3418 -19
-5864 l0 -1999 113 -62 c63 -33 118 -60 123 -58 5 1 2186 309 4848 682 2661
374 4840 682 4842 684 3 2 8 1771 12 3931 l7 3927 -111 60 c-78 41 -122 59
-145 58 -19 -1 -2201 -307 -4849 -680z m960 -924 c356 -54 661 -171 951 -364
166 -110 290 -214 440 -367 455 -468 749 -1065 884 -1797 60 -331 58 -272 63
-1532 3 -1060 2 -1171 -14 -1292 -9 -73 -21 -130 -25 -127 -5 3 -118 148 -251
322 -133 174 -495 649 -805 1054 -310 406 -573 754 -586 775 -21 37 -22 48
-28 428 -4 215 -12 422 -18 460 -88 544 -377 946 -790 1101 -126 47 -221 64
-367 64 -751 0 -1422 -725 -1504 -1625 -5 -60 -10 -255 -10 -433 0 -249 -3
-330 -14 -355 -7 -18 -161 -266 -341 -552 -899 -1426 -1271 -2014 -1299 -2055
l-30 -45 -15 45 c-11 36 -16 180 -23 715 -12 914 -1 1580 32 1930 129 1345
720 2394 1772 3141 409 292 850 467 1293 513 55 6 116 13 135 15 77 9 450 -4
550 -19z m339 -4066 c87 -14 166 -43 224 -82 42 -28 103 -113 476 -662 236
-346 442 -655 459 -685 58 -106 77 -183 77 -310 0 -104 -3 -120 -27 -173 -53
-113 -123 -176 -243 -217 -37 -13 -402 -68 -1019 -155 -528 -75 -1181 -167
-1451 -205 -1339 -189 -1518 -212 -1597 -207 -182 12 -263 110 -260 317 1 111
26 216 75 322 46 100 850 1500 899 1566 70 94 228 193 363 226 33 9 445 69
915 135 470 66 882 124 915 129 84 13 120 13 194 1z"/>
<path d="M4573 3541 c-284 -41 -360 -57 -342 -75 5 -5 695 90 717 99 22 8 3
25 -26 24 -15 -1 -172 -22 -349 -48z"/>
<path d="M5105 3383 c-911 -129 -998 -144 -972 -169 9 -9 1939 264 1951 276 8
8 6 14 -4 20 -8 5 -17 9 -20 9 -3 -1 -432 -62 -955 -136z"/>
<path d="M5275 3120 c-104 -16 -423 -61 -709 -101 -400 -56 -523 -77 -540 -90
-20 -17 -20 -18 -3 -25 24 -9 1467 193 1484 208 10 8 10 14 2 24 -14 17 -3 18
-234 -16z"/>
<path d="M5087 2730 c-676 -96 -1194 -173 -1202 -180 -21 -17 -19 -50 3 -50
25 0 2435 339 2450 345 33 12 -3 56 -45 54 -10 -1 -552 -77 -1206 -169z"/>
</g>
</svg>
